<svg t="1635759080824" class="icon" viewBox="0 0 1024 1024" version="1.1" xmlns="http://www.w3.org/2000/svg" p-id="2534" width="60" height="60"><path d="M910.8 512.59q0 17.19-1.48 33.95a397.56 397.56 0 0 1-792.2 0c-1-11.16-1.48-22.49-1.48-33.95a395.9 395.9 0 0 1 94.94-257.83C283.51 169.25 392.05 115 513.22 115s229.7 54.24 302.63 139.75a395.86 395.86 0 0 1 94.95 257.84z" fill="#F25458" p-id="2535"></path><path d="M815.85 254.76a400 400 0 0 0-54.23-52.43 395.71 395.71 0 0 1 86.87 248c0 11.45-0.47 22.78-1.48 33.94a397.35 397.35 0 0 1-644.4 276.36c2.61 3.27 5.25 6.53 8 9.72a397.57 397.57 0 0 0 698.71-223.81q1.5-16.74 1.48-33.95a395.86 395.86 0 0 0-94.95-257.83z" fill="#CE384A" p-id="2536"></path><path d="M152.73 594q-1.51-16.74-1.49-34a395.86 395.86 0 0 1 94.95-257.83c72.93-85.51 181.46-139.75 302.63-139.75 119.58 0 226.77 52.88 299.66 136.44a398.07 398.07 0 0 0-32.63-44.16C742.92 169.25 634.39 115 513.22 115s-229.71 54.25-302.64 139.76a395.9 395.9 0 0 0-94.94 257.83c0 11.46 0.47 22.79 1.48 33.95a395.38 395.38 0 0 0 93.46 223.77c1 1.15 2 2.23 3 3.36A394.61 394.61 0 0 1 152.73 594z" fill="#FFFFFF" p-id="2537"></path><path d="M512.9 927.92A415.38 415.38 0 0 1 195.53 245c7.28-8.74 15.37-17.56 24-26.16a415.38 415.38 0 0 1 587.41 587.47c-8.61 8.61-17.44 16.7-26.24 24a411.61 411.61 0 0 1-234.31 96.22q-16.78 1.39-33.49 1.39z m0.34-795.09q-15.11 0-30.29 1.2a379.74 379.74 0 0 0-238.28 110c-7.84 7.84-15.2 15.87-21.87 23.87a379.75 379.75 0 0 0 535 535.16c8.07-6.73 16.09-14.09 24-21.94a379.77 379.77 0 0 0-268.56-648.29z" fill="#212144" p-id="2538"></path><path d="M525.59 927.38l1.65-20A411.71 411.71 0 0 1 623.52 673c7.29-8.73 15.37-17.55 24-26.15a415.39 415.39 0 0 1 260.6-120.32l19.88-1.65-0.72 20.8a415.43 415.43 0 0 1-120.34 260.63c-8.61 8.61-17.44 16.7-26.24 24a411.61 411.61 0 0 1-234.31 96.22z m363.87-363A379.87 379.87 0 0 0 672.67 672c-7.85 7.84-15.21 15.87-21.87 23.86A376 376 0 0 0 565 888.77a375.85 375.85 0 0 0 192.78-85.69c8.07-6.73 16.09-14.09 24-21.94a379.89 379.89 0 0 0 107.68-216.8zM221.727 778.912l557.8-557.801 25.174 25.173L246.9 804.085z" fill="#212144" p-id="2539"></path><path d="M513.29 928q-8.34 0-16.7-0.33A415.36 415.36 0 0 1 195.53 245l9.06-10.73 12.55 6.31c114.65 57.71 227.92 140.88 327.55 240.52S727.47 694 785.2 808.67l6.32 12.55-10.74 9.06A413.74 413.74 0 0 1 513.29 928zM213.85 279a379.77 379.77 0 0 0 533 533c-55.68-107-134.07-212.43-227.34-305.7s-198.7-171.67-305.66-227.37z" fill="#212144" p-id="2540"></path><path d="M98.09 500.19l1.15-20.77A411.7 411.7 0 0 1 195.53 245c7.28-8.74 15.37-17.56 24-26.16a415.37 415.37 0 0 1 260.6-120.3l20.8-1.14-1.65 20.29A415.37 415.37 0 0 1 379 378.32c-8.6 8.6-17.43 16.69-26.24 24a411.53 411.53 0 0 1-234.36 96.25z m363.38-363.84a379.86 379.86 0 0 0-216.8 107.7c-7.84 7.84-15.2 15.87-21.87 23.87A375.92 375.92 0 0 0 137 460.78a375.86 375.86 0 0 0 192.78-85.7c8.08-6.73 16.1-14.09 23.95-21.94a379.87 379.87 0 0 0 107.74-216.79z" fill="#212144" p-id="2541"></path></svg>