<svg t="1635759324631" class="icon" viewBox="0 0 1026 1024" version="1.1" xmlns="http://www.w3.org/2000/svg" p-id="5464" width="60" height="60"><path d="M838.606779 115.675336a513.326694 513.326694 0 0 0-94.814683-61.3451 511.999289 511.999289 0 0 1-632.413936 773.40337 511.999289 511.999289 0 1 0 727.228619-712.05827z" fill="#BDDDFA" p-id="5465"></path><path d="M414.121443 700.113042a213.333037 213.333037 0 1 1 288.805525-87.229508 213.617481 213.617481 0 0 1-288.805525 87.229508z m187.733072-350.814327a184.888632 184.888632 0 1 0 75.851747 250.310763 185.078261 185.078261 0 0 0-75.851747-250.310763z" fill="#0788FF" p-id="5466"></path><path d="M186.566203 191.053009l8.628137-27.117c193.516768 61.724359 409.694246 59.069548 642.464292-7.774804l7.869619 27.306629c-238.458928 68.456201-459.851213 71.016198-658.962048 7.585175zM210.459504 846.412099l-6.447399-27.685888c241.492998-55.845848 463.074912-46.838453 658.39316 26.92737l-10.050357 26.642926c-189.91381-71.774715-405.901658-80.497666-641.895404-25.884408zM565.350862 389.974214c12.989612 17.730346 19.43701 41.90809 19.437011 73.102121a143.170172 143.170172 0 0 1-21.04886 80.402851 64.758429 64.758429 0 0 1-56.130293 30.530328q-60.112509 0-67.22361-55.656219h32.426622a32.331807 32.331807 0 0 0 35.176247 28.444405 37.925873 37.925873 0 0 0 32.521436-19.816269 88.27247 88.27247 0 0 0 11.851836-46.933268v-2.465182h-1.517035a56.88881 56.88881 0 0 1-21.428118 18.394049 64.18954 64.18954 0 0 1-27.306629 5.594066 62.198432 62.198432 0 0 1-48.071045-19.531825 67.318425 67.318425 0 0 1-17.445901-48.734747 66.370278 66.370278 0 0 1 20.669601-50.251782 70.162866 70.162866 0 0 1 51.674002-19.911083 66.370278 66.370278 0 0 1 56.414736 26.832555z m-84.859141 12.610353a43.140681 43.140681 0 0 0-10.903688 30.719957 40.201426 40.201426 0 0 0 10.903688 29.771811 37.925873 37.925873 0 0 0 28.444405 11.472576 38.494761 38.494761 0 0 0 29.392552-11.472576 44.94216 44.94216 0 0 0 10.619244-31.004402 40.865128 40.865128 0 0 0-10.998503-30.435513 38.779205 38.779205 0 0 0-28.444405-11.188133 37.925873 37.925873 0 0 0-29.013293 12.13628z" fill="#0687FF" p-id="5467"></path><path d="M270.192754 963.318603a511.999289 511.999289 0 1 1 693.095334-209.445635 512.568177 512.568177 0 0 1-693.095334 209.445635z m447.904563-835.696617a436.147542 436.147542 0 1 0 178.441234 590.505846 436.621616 436.621616 0 0 0-178.441234-590.505846z" fill="#0788FF" p-id="5468"></path><path d="M442.565848 633.742764h142.222025M442.565848 614.779828h142.222025v28.444405h-142.222025z" fill="#0687FF" p-id="5469"></path></svg>