<svg t="1635761302039" class="icon" viewBox="0 0 1139 1024" version="1.1" xmlns="http://www.w3.org/2000/svg" p-id="6616" width="60" height="60"><path d="M6.496516 93.99008h343.177849v19.354044H6.496516z" p-id="6617" fill="#8a8a8a"></path><path d="M96.931226 0h20.539167v341.600654H96.931226z" p-id="6618" fill="#8a8a8a"></path><path d="M104.612251 103.658191m-54.693886 0a54.693886 54.693886 0 1 0 109.387772 0 54.693886 54.693886 0 1 0-109.387772 0Z" p-id="6619" fill="#8a8a8a"></path><path d="M185.806563 230.145599H4.669822v19.354044h181.136741c-0.534642-3.145478-0.837606-6.371152-0.837605-9.677022s0.302964-6.531544 0.837605-9.677022zM347.847671 230.145599h-49.748447c0.534642 3.145478 0.837606 6.371152 0.837606 9.677022s-0.294053 6.531544-0.837606 9.677022h49.748447v-19.354044zM236.134206 296.512505v45.079239h18.953062v-46.326738a57.05344 57.05344 0 0 1-18.953062 1.247499zM255.096179 184.380236V0H236.143116v183.141649c1.915801-0.196035 3.849423-0.294053 5.818689-0.294053 4.517726-0.008911 8.910702 0.534642 13.134374 1.53264zM236.134206 200.268017v-17.135279c-25.520249 2.584103-46.050506 22.027254-50.327643 47.012861h17.233297c3.448441-15.843227 16.707565-28.024156 33.094346-29.877582z" p-id="6620" fill="#8a8a8a"></path><path d="M203.806181 249.499643h-17.999618c4.277137 24.985607 24.807393 44.428758 50.327643 47.012862v-20.093632c-15.353139-1.737587-27.952871-12.528446-32.328025-26.91923zM255.096179 273.772394v21.492612c22.053986-5.20385 39.153623-23.221288 43.011956-45.765363h-20.95797a38.451459 38.451459 0 0 1-22.053986 24.272751zM277.907575 230.145599h20.191649c-3.858334-22.544075-20.949059-40.561513-43.011956-45.765363v18.53426c11.468073 4.731583 20.129275 14.871961 22.820307 27.231103z" p-id="6621" fill="#8a8a8a"></path><path d="M298.099224 230.145599h-20.191649c0.579196 2.637568 0.89107 5.382064 0.89107 8.197846 0 3.885066-0.579196 7.627561-1.657391 11.156198h20.95797c0.534642-3.145478 0.837606-6.371152 0.837606-9.677022s-0.294053-6.531544-0.837606-9.677022zM202.14879 238.343445c0-2.815782 0.311875-5.551367 0.89107-8.197846h-17.233297c-0.534642 3.145478-0.837606 6.371152-0.837605 9.677022s0.294053 6.531544 0.837605 9.677022h17.999618a38.10216 38.10216 0 0 1-1.657391-11.156198zM240.473717 276.668372c-1.470266 0-2.913799-0.089107-4.339511-0.249499v20.093632a57.040074 57.040074 0 0 0 18.961973-1.247499v-21.492612a38.212653 38.212653 0 0 1-14.622462 2.895978zM240.473717 200.018518c5.177118 0 10.113646 1.033641 14.622462 2.895978v-18.53426a57.05344 57.05344 0 0 0-18.961973-1.247498v17.135279c1.425712-0.160393 2.869246-0.2495 4.339511-0.249499z" p-id="6622" fill="#8a8a8a"></path><path d="M723.656509 273.772394m-70.857899 0a70.857899 70.857899 0 1 0 141.715797 0 70.857899 70.857899 0 1 0-141.715797 0Z" p-id="6623" fill="#8a8a8a"></path><path d="M140.762967 590.49437v45.016864h410.213056c6.380062 0 11.548269-5.168207 11.54827-11.548269v-20.138186c0-7.360239-5.97017-13.33041-13.33041-13.330409H140.762967z" p-id="6624" fill="#8a8a8a"></path><path d="M444.056516 493.795437l344.755042-140.646513c51.539498-16.885779 88.857516-0.89107 105.734385 42.646617l76.418176 224.799179c16.885779 61.011573-32.880489 119.661811-62.196696 120.846934l-256.788598 3.270228c-12.31459 0.160393-22.22329 10.184932-22.223289 22.508432v203.030334c0 26.250927-21.287666 47.538593-47.538593 47.538593s-47.538593-21.287666-47.538593-47.538593v-263.756765c0-29.770654 24.13018-53.909744 53.909745-53.909745h173.535912c12.18984 0 20.753024-12.011626 16.778851-23.542073L726.677236 477.800727c-4.392976-12.715571-18.525349-19.158008-31.00033-14.141283L468.935194 554.851564c-26.455873 8.687934-48.572234-43.840652-24.878678-61.056127z" p-id="6625" fill="#8a8a8a"></path><path d="M679.521804 804.680903v208.510416c0 5.97017 4.838511 10.808681 10.808681 10.808681h318.691241c5.97017 0 10.808681-4.838511 10.808681-10.808681v-208.510416c0-5.97017-4.838511-10.808681-10.808681-10.808681H690.330485c-5.97017-0.008911-10.808681 4.838511-10.808681 10.808681z" p-id="6626" fill="#8a8a8a"></path></svg>